/* XPM */
static char * title128_xpm[] = {
"128 128 2 1",
" 	c None",
".	c #000000",
"                                                                                                                                ",
"                                                                                                                                ",
"                                                                                                                                ",
"                                                                                                                                ",
"                                                                                                                                ",
"                                                                                                                                ",
"                                                                                                                                ",
"                                                                                                                                ",
"                                                                                                                                ",
"                  .                                                                                                             ",
"                  .                                                                                                             ",
"                 ...                                                                                                            ",
"                 ...                                                                                                            ",
"                 ...                                                                                                            ",
"                 ....                                                                                                           ",
"                 ....                                                                                                           ",
"                 .....                                                                                                          ",
"       .         .....                                                                                                          ",
"      ..         ......                                                                                                         ",
"      ...        ......                                                                                                         ",
"      ...         ......                                                                                                        ",
"      ....        ......                                                                                                        ",
"      .....       .......                                                                                                       ",
"      .....        ......                                                                                                       ",
"      ......       .......                                                                                                      ",
"      ......        ......                                                                                                      ",
"       ......       .......                                                                                                     ",
"       .......       ......                                                                                                     ",
"       .......       .......                                                                                                    ",
"        .......       .......                                                                                                   ",
"        ........       ......                                                                                                   ",
"         ........      .......                                                                                                  ",
"         .........      .......                                                                                                 ",
"          .........      .......                                                                                                ",
"           ........       ......                                                                                                ",
"            ........       ......                                                                                               ",
"            .........      .......                                                                                              ",
"             .........      .......                                                                                             ",
"              .........      .......                                                                                            ",
"       .       .........      ......                                                                                            ",
"       ..       ..........     ......                                                                                           ",
"       ...       ..........     ......                                                                                          ",
"       ....       ..........     ......                                                                                         ",
"       ......      ..........     ......                                                                                        ",
"        ......      ..........     ......                                                                                       ",
"        .......      ..........     ......                                                                                      ",
"         .......      ..........     .....                                                                                      ",
"         .........     ...........    .....                                                                                     ",
"          .........     ...........    .....                                                                                    ",
"           .........     ...........     ....                                                                                   ",
"            .........     ............    ....                                                                                  ",
"            ...........     ...........    ....                                                                                 ",
"             ...........     ...........    ....                                                                                ",
"               ...........    ............   ....                                                                               ",
"                ...........    ............   ....                                                                              ",
"                 ...........     ............   ...                                                                             ",
"                  ............    ............   ....                                                                           ",
"                    ...........     ...........   ....                                                                          ",
"                     ............    ............  ....                                                                         ",
"                       ............   ............   ...                                                                        ",
"                        ............    ............  ...                                                                       ",
"                  .       ............   ............  ...                                                                      ",
"                  ..       ............    ............ ...                                                                     ",
"                   ...       ............   ............  ..                                                                    ",
"                   .....      .............   ...........  ..                                                                   ",
"                    ......      .............  ............ ..                                                                  ",
"                    .......       ............   ...........  .                                                                 ",
"                     ........       ............   ........... .                                                                ",
"                      .........      .............  ...........                                                                 ",
"                       ...........     .............  ..........                                                                ",
"                        ............     .............  ..........                                                              ",
"                         .............     .............  .........                                                             ",
"                          ..............     ............. ..........                                                           ",
"                            ...............    .......................                                                          ",
"                             ................    ......................                                                         ",
"                               .................   ......................                                                       ",
"                                 .................   .....................                                                      ",
"                                   ..................  ....................                ..                                   ",
"                                     ..................  .......................           ....                                 ",
"                                       ................... ..........................       ......                              ",
"                                          .................. ...........................     ........                           ",
"                                             ................................................ ..........                        ",
"                                                ...........................................................                     ",
"                                                    .........................................................                   ",
"                                                       ........................................................                 ",
"                                                          .......................................................               ",
"                                                             ......................................................             ",
"                                                       ...      ....................................................            ",
"                                                        .....      ..................................................           ",
"                                                         ..........   ................................................          ",
"                                                           ...........................................................          ",
"                                                            ...........................................................         ",
"                                                              .........................................................         ",
"                                                          .      ......................................................         ",
"                                                           .....    ....................................................        ",
"                                                            .............................................................       ",
"                                                              ............................................................      ",
"                                                                ..........................................    .............     ",
"                                                                   .................................             ..........     ",
"                                                              ....    ...........................                   .......     ",
"                                                                ...............................                     ......      ",
"                                                                  ...........................                        ...        ",
"                                                                     .......................                        ..          ",
"                                                                        ...................                                     ",
"                                                                           ................                                     ",
"                                                                             .............                                      ",
"                                                                               ...........                                      ",
"                                                                                 .........                                      ",
"                                                                                  ........                                      ",
"                                                                                   ......                                       ",
"                                                                                   ......                                       ",
"                                                                                    ....                                        ",
"                                                                                    ....                                        ",
"                                                                                    ...                                         ",
"                                                                                    ...                                         ",
"                                                                                    ..                                          ",
"                                                                                    .                                           ",
"                                                                                                                                ",
"                                                                                                                                ",
"                                                                                                                                ",
"                                                                                                                                ",
"                                                                                                                                ",
"                                                                                                                                ",
"                                                                                                                                ",
"                                                                                                                                ",
"                                                                                                                                ",
"                                                                                                                                ",
"                                                                                                                                "};
