<?xml version="1.0" encoding="UTF-8" standalone="no"?>
<!DOCTYPE svg PUBLIC "-//W3C//DTD SVG 20010904//EN"
              "http://www.w3.org/TR/2001/REC-SVG-20010904/DTD/svg10.dtd">

<svg xmlns="http://www.w3.org/2000/svg"
     height="64" width="104" 
     viewBox="0 0 1062 654">
  <path id="Selection #3"
        fill="black" fill-opacity="1" stroke="black" stroke-width="1"
        d="M 1041.00,0.00
           C 1041.00,0.00 1041.00,654.00 1041.00,654.00
             1041.00,654.00 20.00,654.00 20.00,654.00
             20.00,654.00 20.00,0.00 20.00,0.00
             20.00,0.00 1041.00,0.00 1041.00,0.00 Z
           M 299.00,3.00
           C 293.71,13.05 289.44,26.50 290.09,38.00
             291.66,65.60 305.10,90.60 320.34,113.00
             354.13,162.64 414.89,214.11 462.00,251.80
             462.00,251.80 505.00,285.65 505.00,285.65
             512.15,291.18 525.22,301.20 533.00,305.00
             530.61,300.18 527.81,298.70 524.00,294.99
             524.00,294.99 508.00,279.00 508.00,279.00
             508.00,279.00 483.00,254.99 483.00,254.99
             483.00,254.99 448.00,220.00 448.00,220.00
             448.00,220.00 416.09,188.00 416.09,188.00
             391.58,161.70 355.18,116.01 337.43,85.00
             337.43,85.00 320.69,52.00 320.69,52.00
             313.36,36.03 305.59,20.05 301.00,3.00
             301.00,3.00 299.00,3.00 299.00,3.00 Z
           M 242.00,41.00
           C 238.56,49.61 235.34,58.62 235.04,68.00
             234.87,73.37 236.55,81.72 237.87,87.00
             245.43,117.25 261.13,133.90 280.59,157.00
             280.59,157.00 304.00,182.99 304.00,182.99
             343.55,222.03 405.34,264.37 453.00,293.94
             453.00,293.94 510.00,327.00 510.00,327.00
             504.34,325.39 499.35,322.25 494.00,319.86
             494.00,319.86 449.00,297.26 449.00,297.26
             402.14,273.02 345.41,236.38 304.00,203.79
             304.00,203.79 257.00,164.95 257.00,164.95
             257.00,164.95 246.00,155.24 246.00,155.24
             244.64,154.18 242.41,152.46 240.58,153.40
             238.74,154.34 239.37,157.40 239.59,159.00
             239.59,159.00 242.42,174.00 242.42,174.00
             247.29,195.70 265.09,216.39 282.00,230.00
             327.52,266.63 373.32,293.08 425.00,319.74
             425.00,319.74 473.00,343.74 473.00,343.74
             473.00,343.74 516.00,365.00 516.00,365.00
             516.00,365.00 469.00,346.42 469.00,346.42
             432.37,332.49 392.99,316.25 358.00,298.75
             358.00,298.75 320.00,278.40 320.00,278.40
             313.73,274.68 302.30,266.84 296.00,265.00
             303.12,300.29 335.21,324.17 365.00,340.31
             410.40,364.90 461.32,376.44 510.00,392.67
             510.00,392.67 559.00,410.00 559.00,410.00
             546.50,408.99 517.38,403.24 505.00,399.85
             505.00,399.85 479.00,392.00 479.00,392.00
             489.61,412.60 517.90,423.92 539.00,430.28
             539.00,430.28 559.00,436.00 559.00,436.00
             559.00,436.00 542.00,434.15 542.00,434.15
             542.00,434.15 508.00,429.00 508.00,429.00
             508.00,429.00 492.00,425.00 492.00,425.00
             496.51,431.01 503.56,435.36 510.00,439.14
             522.73,446.62 534.85,451.44 549.00,455.58
             549.00,455.58 566.00,461.00 566.00,461.00
             550.54,460.29 530.22,455.43 515.00,452.00
             521.06,464.78 546.96,471.61 560.00,475.42
             588.14,483.66 623.69,496.56 627.85,530.00
             629.00,539.27 628.65,541.80 627.00,551.00
             636.68,542.93 649.89,519.17 654.31,507.00
             654.31,507.00 661.35,483.00 661.35,483.00
             665.42,473.99 673.68,467.38 682.00,462.45
             693.66,455.54 711.59,451.66 725.00,449.55
             740.48,447.50 745.35,445.51 761.00,449.55
             768.79,451.30 787.85,455.12 788.67,465.00
             788.99,468.85 785.52,473.35 784.00,477.00
             797.15,475.14 822.30,466.62 820.89,450.00
             819.98,439.14 808.48,431.93 804.58,426.00
             802.76,423.22 802.24,419.25 800.91,416.00
             799.29,412.06 796.46,408.23 793.70,405.00
             790.86,401.68 782.37,393.11 779.00,390.61
             764.84,380.08 732.36,368.45 715.00,362.67
             715.00,362.67 661.00,342.00 661.00,342.00
             661.30,353.90 669.08,361.07 677.00,369.00
             677.00,369.00 648.00,361.63 648.00,361.63
             648.00,361.63 619.00,354.60 619.00,354.60
             619.00,354.60 585.00,347.24 585.00,347.24
             585.00,347.24 553.00,323.88 553.00,323.88
             553.00,323.88 487.00,276.72 487.00,276.72
             429.02,236.13 370.26,197.26 320.00,147.00
             292.40,119.40 274.40,98.52 255.69,64.00
             255.69,64.00 244.00,41.00 244.00,41.00
             244.00,41.00 242.00,41.00 242.00,41.00 Z
           M 720.15,605.00
           C 720.15,605.00 720.15,620.00 720.15,620.00
             720.21,637.51 731.57,652.77 750.00,653.00
             759.03,653.11 765.65,652.86 772.97,646.67
             789.25,632.96 789.66,596.98 772.97,583.53
             764.97,577.09 755.80,576.32 746.00,577.30
             731.59,580.12 722.38,590.55 720.15,605.00 Z
           M 128.00,578.00
           C 128.00,578.00 128.00,592.00 128.00,592.00
             128.00,592.00 149.00,592.00 149.00,592.00
             149.00,592.00 149.00,652.00 149.00,652.00
             149.00,652.00 168.00,652.00 168.00,652.00
             168.00,652.00 168.00,592.00 168.00,592.00
             168.00,592.00 190.00,592.00 190.00,592.00
             190.00,592.00 190.00,578.00 190.00,578.00
             190.00,578.00 128.00,578.00 128.00,578.00 Z
           M 198.00,578.00
           C 198.00,578.00 198.00,652.00 198.00,652.00
             198.00,652.00 217.00,652.00 217.00,652.00
             217.00,652.00 217.00,578.00 217.00,578.00
             217.00,578.00 198.00,578.00 198.00,578.00 Z
           M 223.00,578.00
           C 223.00,578.00 223.00,592.00 223.00,592.00
             223.00,592.00 245.00,592.00 245.00,592.00
             245.00,592.00 245.00,652.00 245.00,652.00
             245.00,652.00 263.00,652.00 263.00,652.00
             263.00,652.00 263.00,592.00 263.00,592.00
             263.00,592.00 286.00,592.00 286.00,592.00
             286.00,592.00 286.00,578.00 286.00,578.00
             286.00,578.00 223.00,578.00 223.00,578.00 Z
           M 292.00,578.00
           C 292.00,578.00 292.00,652.00 292.00,652.00
             292.00,652.00 342.00,652.00 342.00,652.00
             342.00,652.00 342.00,638.00 342.00,638.00
             342.00,638.00 311.00,638.00 311.00,638.00
             311.00,638.00 311.00,578.00 311.00,578.00
             311.00,578.00 292.00,578.00 292.00,578.00 Z
           M 349.00,578.00
           C 349.00,578.00 349.00,652.00 349.00,652.00
             349.00,652.00 400.00,652.00 400.00,652.00
             400.00,652.00 400.00,638.00 400.00,638.00
             400.00,638.00 367.00,638.00 367.00,638.00
             367.00,638.00 367.00,621.00 367.00,621.00
             367.00,621.00 395.00,621.00 395.00,621.00
             395.00,621.00 395.00,607.00 395.00,607.00
             395.00,607.00 367.00,607.00 367.00,607.00
             367.00,607.00 367.00,592.00 367.00,592.00
             367.00,592.00 401.00,592.00 401.00,592.00
             401.00,592.00 401.00,578.00 401.00,578.00
             401.00,578.00 349.00,578.00 349.00,578.00 Z
           M 458.00,589.00
           C 454.33,582.62 453.86,578.14 446.00,578.00
             446.00,578.00 433.00,578.00 433.00,578.00
             433.00,578.00 433.00,652.00 433.00,652.00
             433.00,652.00 451.00,652.00 451.00,652.00
             451.00,652.00 451.00,625.00 451.00,625.00
             451.00,625.00 452.00,608.00 452.00,608.00
             452.00,608.00 470.15,641.00 470.15,641.00
             473.79,647.38 474.24,651.87 482.00,652.00
             482.00,652.00 495.00,652.00 495.00,652.00
             495.00,652.00 495.00,578.00 495.00,578.00
             495.00,578.00 477.00,578.00 477.00,578.00
             477.00,578.00 477.00,605.00 477.00,605.00
             477.00,605.00 476.00,622.00 476.00,622.00
             476.00,622.00 458.00,589.00 458.00,589.00 Z
           M 506.00,578.00
           C 506.00,578.00 506.00,652.00 506.00,652.00
             506.00,652.00 558.00,652.00 558.00,652.00
             558.00,652.00 558.00,638.00 558.00,638.00
             558.00,638.00 524.00,638.00 524.00,638.00
             524.00,638.00 524.00,621.00 524.00,621.00
             524.00,621.00 552.00,621.00 552.00,621.00
             552.00,621.00 552.00,607.00 552.00,607.00
             552.00,607.00 524.00,607.00 524.00,607.00
             524.00,607.00 524.00,592.00 524.00,592.00
             524.00,592.00 558.00,592.00 558.00,592.00
             558.00,592.00 558.00,578.00 558.00,578.00
             558.00,578.00 506.00,578.00 506.00,578.00 Z
           M 561.00,578.00
           C 561.00,578.00 561.00,592.00 561.00,592.00
             561.00,592.00 583.00,592.00 583.00,592.00
             583.00,592.00 583.00,652.00 583.00,652.00
             583.00,652.00 602.00,652.00 602.00,652.00
             602.00,652.00 602.00,592.00 602.00,592.00
             602.00,592.00 624.00,592.00 624.00,592.00
             624.00,592.00 624.00,578.00 624.00,578.00
             624.00,578.00 561.00,578.00 561.00,578.00 Z
           M 647.61,590.00
           C 647.61,590.00 644.42,579.02 644.42,579.02
             644.42,579.02 627.00,578.00 627.00,578.00
             627.00,578.00 642.00,652.00 642.00,652.00
             642.00,652.00 662.00,652.00 662.00,652.00
             663.61,644.01 668.74,618.94 672.00,613.00
             672.00,613.00 680.00,652.00 680.00,652.00
             680.00,652.00 700.00,652.00 700.00,652.00
             700.00,652.00 710.60,602.00 710.60,602.00
             710.60,602.00 715.00,578.00 715.00,578.00
             715.00,578.00 697.00,578.00 697.00,578.00
             697.00,578.00 690.00,620.00 690.00,620.00
             690.00,620.00 688.00,620.00 688.00,620.00
             688.00,620.00 681.88,590.00 681.88,590.00
             681.88,590.00 678.28,578.99 678.28,578.99
             678.28,578.99 663.00,578.00 663.00,578.00
             663.00,578.00 653.00,622.00 653.00,622.00
             653.00,622.00 647.61,590.00 647.61,590.00 Z
           M 842.00,582.21
           C 831.40,575.70 806.85,578.00 794.00,578.00
             794.00,578.00 794.00,652.00 794.00,652.00
             794.00,652.00 812.00,652.00 812.00,652.00
             812.00,652.00 812.00,626.00 812.00,626.00
             814.38,626.01 817.70,625.79 819.79,627.02
             824.37,629.72 829.86,647.07 833.63,650.40
             836.66,653.07 849.60,652.00 854.00,652.00
             854.00,652.00 839.00,621.00 839.00,621.00
             854.57,614.89 855.27,590.37 842.00,582.21 Z
           M 861.00,578.00
           C 861.00,578.00 861.00,652.00 861.00,652.00
             861.00,652.00 880.00,652.00 880.00,652.00
             880.00,639.89 877.22,633.75 888.00,626.00
             888.00,626.00 897.28,644.00 897.28,644.00
             897.28,644.00 903.21,651.40 903.21,651.40
             903.21,651.40 924.00,652.00 924.00,652.00
             924.00,652.00 907.00,623.00 907.00,623.00
             907.00,623.00 901.06,611.00 901.06,611.00
             901.06,611.00 907.13,601.00 907.13,601.00
             907.13,601.00 924.00,578.00 924.00,578.00
             924.00,578.00 907.00,578.00 907.00,578.00
             899.57,578.14 898.79,581.17 894.72,587.00
             894.72,587.00 880.00,609.00 880.00,609.00
             880.00,609.00 880.00,578.00 880.00,578.00
             880.00,578.00 861.00,578.00 861.00,578.00 Z
           M 753.00,592.05
           C 766.59,592.70 766.05,608.21 766.00,618.00
             765.98,621.81 765.94,624.28 764.78,628.00
             762.75,634.48 758.43,639.61 751.00,638.63
             737.83,636.90 738.98,621.74 739.00,612.00
             739.01,607.75 739.00,604.07 740.56,600.00
             742.08,596.04 743.40,594.73 747.02,592.74
             749.36,592.17 750.54,591.93 753.00,592.05 Z
           M 828.79,594.09
           C 834.47,597.92 834.10,607.45 827.95,610.69
             824.46,612.52 816.16,612.00 812.00,612.00
             812.00,612.00 812.00,592.00 812.00,592.00
             816.85,592.00 824.73,591.35 828.79,594.09 Z" />
</svg>
